<mxfile host="app.diagrams.net" modified="2023-06-06T15:22:59.279Z" agent="Mozilla/5.0 (Macintosh; Intel Mac OS X 10_15_7) AppleWebKit/537.36 (KHTML, like Gecko) Chrome/113.0.0.0 Safari/537.36" etag="tihbcbyz3qsp4D-Y7tXa" version="21.3.7" type="github">
  <diagram name="第 1 页" id="qILngWPg5egS9xk_PMey">
    <mxGraphModel dx="1242" dy="1997" grid="1" gridSize="10" guides="1" tooltips="1" connect="1" arrows="1" fold="1" page="1" pageScale="1" pageWidth="827" pageHeight="1169" math="0" shadow="0">
      <root>
        <mxCell id="0" />
        <mxCell id="1" parent="0" />
        <mxCell id="1QAKIGve34cdBMiaPZUU-1" value="" style="rounded=0;whiteSpace=wrap;html=1;" vertex="1" parent="1">
          <mxGeometry x="190" y="300" width="500" height="230" as="geometry" />
        </mxCell>
        <mxCell id="1QAKIGve34cdBMiaPZUU-2" value="" style="rounded=0;whiteSpace=wrap;html=1;" vertex="1" parent="1">
          <mxGeometry x="200" y="310" width="150" height="210" as="geometry" />
        </mxCell>
        <mxCell id="1QAKIGve34cdBMiaPZUU-3" value="H5 接口" style="rounded=0;whiteSpace=wrap;html=1;" vertex="1" parent="1">
          <mxGeometry x="215" y="-60" width="155" height="70" as="geometry" />
        </mxCell>
        <mxCell id="1QAKIGve34cdBMiaPZUU-4" value="句子消息重试" style="rounded=0;whiteSpace=wrap;html=1;" vertex="1" parent="1">
          <mxGeometry x="215" y="360" width="120" height="30" as="geometry" />
        </mxCell>
        <mxCell id="1QAKIGve34cdBMiaPZUU-5" value="鲸域消息重试" style="rounded=0;whiteSpace=wrap;html=1;" vertex="1" parent="1">
          <mxGeometry x="215" y="400" width="120" height="30" as="geometry" />
        </mxCell>
        <mxCell id="1QAKIGve34cdBMiaPZUU-6" value="公众号消息重试" style="rounded=0;whiteSpace=wrap;html=1;" vertex="1" parent="1">
          <mxGeometry x="215" y="440" width="120" height="30" as="geometry" />
        </mxCell>
        <mxCell id="1QAKIGve34cdBMiaPZUU-7" value="重试任务" style="text;html=1;strokeColor=none;fillColor=none;align=center;verticalAlign=middle;whiteSpace=wrap;rounded=0;" vertex="1" parent="1">
          <mxGeometry x="240" y="310" width="60" height="30" as="geometry" />
        </mxCell>
        <mxCell id="1QAKIGve34cdBMiaPZUU-8" value="" style="rounded=0;whiteSpace=wrap;html=1;" vertex="1" parent="1">
          <mxGeometry x="360" y="310" width="150" height="210" as="geometry" />
        </mxCell>
        <mxCell id="1QAKIGve34cdBMiaPZUU-9" value="句子同步用户表" style="rounded=0;whiteSpace=wrap;html=1;" vertex="1" parent="1">
          <mxGeometry x="375" y="360" width="120" height="30" as="geometry" />
        </mxCell>
        <mxCell id="1QAKIGve34cdBMiaPZUU-10" value="鲸域同步用户表" style="rounded=0;whiteSpace=wrap;html=1;" vertex="1" parent="1">
          <mxGeometry x="375" y="400" width="120" height="30" as="geometry" />
        </mxCell>
        <mxCell id="1QAKIGve34cdBMiaPZUU-11" value="公众号同步用户表" style="rounded=0;whiteSpace=wrap;html=1;" vertex="1" parent="1">
          <mxGeometry x="375" y="440" width="120" height="30" as="geometry" />
        </mxCell>
        <mxCell id="1QAKIGve34cdBMiaPZUU-12" value="同步任务" style="text;html=1;strokeColor=none;fillColor=none;align=center;verticalAlign=middle;whiteSpace=wrap;rounded=0;" vertex="1" parent="1">
          <mxGeometry x="400" y="310" width="60" height="30" as="geometry" />
        </mxCell>
        <mxCell id="1QAKIGve34cdBMiaPZUU-13" value="" style="rounded=0;whiteSpace=wrap;html=1;" vertex="1" parent="1">
          <mxGeometry x="520" y="310" width="150" height="210" as="geometry" />
        </mxCell>
        <mxCell id="1QAKIGve34cdBMiaPZUU-14" value="同步文章详情" style="rounded=0;whiteSpace=wrap;html=1;" vertex="1" parent="1">
          <mxGeometry x="375" y="480" width="120" height="30" as="geometry" />
        </mxCell>
        <mxCell id="1QAKIGve34cdBMiaPZUU-15" value="定期同步句子客户表" style="rounded=0;whiteSpace=wrap;html=1;" vertex="1" parent="1">
          <mxGeometry x="535" y="360" width="120" height="30" as="geometry" />
        </mxCell>
        <mxCell id="1QAKIGve34cdBMiaPZUU-16" value="定期同步公众号粉丝" style="rounded=0;whiteSpace=wrap;html=1;" vertex="1" parent="1">
          <mxGeometry x="535" y="440" width="120" height="30" as="geometry" />
        </mxCell>
        <mxCell id="1QAKIGve34cdBMiaPZUU-17" value="其他任务" style="text;html=1;strokeColor=none;fillColor=none;align=center;verticalAlign=middle;whiteSpace=wrap;rounded=0;" vertex="1" parent="1">
          <mxGeometry x="560" y="310" width="60" height="30" as="geometry" />
        </mxCell>
        <mxCell id="1QAKIGve34cdBMiaPZUU-18" value="同步文章详情重试" style="rounded=0;whiteSpace=wrap;html=1;" vertex="1" parent="1">
          <mxGeometry x="215" y="480" width="120" height="30" as="geometry" />
        </mxCell>
        <mxCell id="1QAKIGve34cdBMiaPZUU-19" value="定期同步鲸域客户表" style="rounded=0;whiteSpace=wrap;html=1;" vertex="1" parent="1">
          <mxGeometry x="535" y="400" width="120" height="30" as="geometry" />
        </mxCell>
        <mxCell id="1QAKIGve34cdBMiaPZUU-20" value="" style="rounded=0;whiteSpace=wrap;html=1;" vertex="1" parent="1">
          <mxGeometry x="215" y="20" width="155" height="250" as="geometry" />
        </mxCell>
        <mxCell id="1QAKIGve34cdBMiaPZUU-21" value="句子消息回调" style="rounded=0;whiteSpace=wrap;html=1;" vertex="1" parent="1">
          <mxGeometry x="232" y="70" width="120" height="30" as="geometry" />
        </mxCell>
        <mxCell id="1QAKIGve34cdBMiaPZUU-22" value="鲸域消息回调" style="rounded=0;whiteSpace=wrap;html=1;" vertex="1" parent="1">
          <mxGeometry x="232" y="110" width="120" height="30" as="geometry" />
        </mxCell>
        <mxCell id="1QAKIGve34cdBMiaPZUU-23" value="公众号消息回调" style="rounded=0;whiteSpace=wrap;html=1;" vertex="1" parent="1">
          <mxGeometry x="232" y="150" width="120" height="30" as="geometry" />
        </mxCell>
        <mxCell id="1QAKIGve34cdBMiaPZUU-24" value="消息回调接口" style="text;html=1;strokeColor=none;fillColor=none;align=center;verticalAlign=middle;whiteSpace=wrap;rounded=0;" vertex="1" parent="1">
          <mxGeometry x="247.5" y="20" width="85" height="30" as="geometry" />
        </mxCell>
        <mxCell id="1QAKIGve34cdBMiaPZUU-25" value="企业微信消息回调" style="rounded=0;whiteSpace=wrap;html=1;" vertex="1" parent="1">
          <mxGeometry x="232" y="190" width="120" height="30" as="geometry" />
        </mxCell>
        <mxCell id="1QAKIGve34cdBMiaPZUU-26" value="支付消息回调" style="rounded=0;whiteSpace=wrap;html=1;" vertex="1" parent="1">
          <mxGeometry x="232" y="230" width="120" height="30" as="geometry" />
        </mxCell>
        <mxCell id="1QAKIGve34cdBMiaPZUU-27" value="APP 接口" style="rounded=0;whiteSpace=wrap;html=1;" vertex="1" parent="1">
          <mxGeometry x="215" y="-140" width="155" height="70" as="geometry" />
        </mxCell>
      </root>
    </mxGraphModel>
  </diagram>
</mxfile>
